# xmcd
#
# Track frame offsets: 
#        150
#        15656
#        30501
#        42788
#        56658
#        85490
#        104336
#        125435
#        138417
#        153099
#        167503
#        187416
#        204502
#        223502
#        243314
#        274901
#        292156
#        310050
#        326885
#
# Disc length: 4578 seconds
#
# Revision: 0
# Processed by: cddbd v1.5.2PL0 Copyright (c) Steve Scherf et al.
# Submitted via: ExactAudioCopy v0.99pb4
#
DISCID=1811e013
DTITLE=Various Artist - 100 Essential Tracks - Disco Hits - CD4
DYEAR=2010
DGENRE=Disco
TTITLE0=Odyssey - Going Back To My Roots
TTITLE1=Evelyn "Champagne" King - Shame
TTITLE2=The Three Degrees - Year Of Decision
TTITLE3=Tina Charles - I Love To Love
TTITLE4=Nancy Wilson - Take My Love
TTITLE5=Gloria Jones - Woman Is A Woman
TTITLE6=Biddu Orchestra - Rain Forest
TTITLE7=Al Martino - Volare (Disco 1975)
TTITLE8=Dominic Troliano - We All Need Love
TTITLE9=Brown Sugar - Lay Some Love On Me
TTITLE10=The Pasadenas - Tribute (Right On)
TTITLE11=DJ Jazzy Jeff and The Fresh Prince - Boom! Shake The Room
TTITLE12=The Isley Brothers - It's A Disco Night (Rock Don't Stop)
TTITLE13=Miami Sound Machine - Dr. Beat
TTITLE14=Mystic Merlin - Just Can't Give You Up
TTITLE15=Phyllis Hyman - You Know How To Love Me
TTITLE16=Marvin Gaye - Sexual Healing
TTITLE17=Phil Fearon and Galaxy - Wait Until Tonight
TTITLE18=Tavares - Don't Take Away The Music
EXTD=
EXTT0=
EXTT1=
EXTT2=
EXTT3=
EXTT4=
EXTT5=
EXTT6=
EXTT7=
EXTT8=
EXTT9=
EXTT10=
EXTT11=
EXTT12=
EXTT13=
EXTT14=
EXTT15=
EXTT16=
EXTT17=
EXTT18=
PLAYORDER=
